<svg xmlns="http://www.w3.org/2000/svg" xmlns:xlink="http://www.w3.org/1999/xlink" version="1.0" x="0px" y="0px" viewBox="0 0 100 100" enable-background="new 0 0 100 100" xml:space="preserve"><path fill="none" stroke="#000000" stroke-linecap="round" stroke-linejoin="round" stroke-miterlimit="10" d="M10,10v8.233h6.177  l1.599-3.194c0.252-0.507,0.924-0.922,1.488-0.922h10.294c0.566,0,1.236,0.415,1.49,0.922l1.6,3.194h47.355V10H10z"></path><rect x="14.999" y="25" fill="none" stroke="#000000" stroke-linecap="round" stroke-linejoin="round" stroke-miterlimit="10" width="8.236" height="3.088"></rect><rect x="27.353" y="25" fill="none" stroke="#000000" stroke-linecap="round" stroke-linejoin="round" stroke-miterlimit="10" width="16.468" height="3.088"></rect><rect x="23.235" y="31.175" fill="none" stroke="#000000" stroke-linecap="round" stroke-linejoin="round" stroke-miterlimit="10" width="16.469" height="3.091"></rect><rect x="43.824" y="31.175" fill="none" stroke="#000000" stroke-linecap="round" stroke-linejoin="round" stroke-miterlimit="10" width="12.352" height="3.091"></rect><rect x="23.235" y="37.353" fill="none" stroke="#000000" stroke-linecap="round" stroke-linejoin="round" stroke-miterlimit="10" width="4.118" height="3.09"></rect><rect x="31.47" y="37.353" fill="none" stroke="#000000" stroke-linecap="round" stroke-linejoin="round" stroke-miterlimit="10" width="20.588" height="3.09"></rect><rect x="23.235" y="43.53" fill="none" stroke="#000000" stroke-linecap="round" stroke-linejoin="round" stroke-miterlimit="10" width="12.352" height="3.09"></rect><rect x="14.999" y="49.707" fill="none" stroke="#000000" stroke-linecap="round" stroke-linejoin="round" stroke-miterlimit="10" width="4.116" height="3.088"></rect><rect x="23.237" y="49.707" fill="none" stroke="#000000" stroke-linecap="round" stroke-linejoin="round" stroke-miterlimit="10" width="20.587" height="3.088"></rect><rect x="47.942" y="49.707" fill="none" stroke="#000000" stroke-linecap="round" stroke-linejoin="round" stroke-miterlimit="10" width="4.117" height="3.088"></rect><rect x="74.339" y="12.574" fill="none" stroke="#000000" stroke-linecap="round" stroke-linejoin="round" stroke-miterlimit="10" width="3.09" height="3.089"></rect><rect x="69.192" y="12.574" fill="none" stroke="#000000" stroke-linecap="round" stroke-linejoin="round" stroke-miterlimit="10" width="3.09" height="3.089"></rect><rect x="64.048" y="12.574" fill="none" stroke="#000000" stroke-linecap="round" stroke-linejoin="round" stroke-miterlimit="10" width="3.088" height="3.089"></rect><path fill="none" stroke="#000000" stroke-linecap="round" stroke-linejoin="round" stroke-miterlimit="10" d="M41.344,15.04  c-0.255-0.507-0.923-0.922-1.489-0.922H29.558c0.566,0,1.236,0.415,1.49,0.922l1.6,3.194h2.045h8.246L41.344,15.04z"></path><path fill="none" stroke="#000000" stroke-linecap="round" stroke-linejoin="round" stroke-miterlimit="10" d="M75.95,38.761h-4.957  H75.95z"></path><path fill="none" stroke="#000000" stroke-linecap="round" stroke-linejoin="round" stroke-miterlimit="10" d="M80.085,38.761  h-1.654H80.085z"></path><path fill="none" stroke="#000000" stroke-linecap="round" stroke-linejoin="round" stroke-miterlimit="10" d="M75.538,85.395  c0,1.137-0.924,2.066-2.064,2.066s-2.066-0.93-2.066-2.066c0-1.141,0.926-2.068,2.066-2.068S75.538,84.254,75.538,85.395z"></path><path fill="none" stroke="#000000" stroke-linecap="round" stroke-linejoin="round" stroke-miterlimit="10" d="M90,40.416L90,40.416  c0-2.739-2.221-4.958-4.961-4.958h-23.14c-2.737,0-4.956,2.219-4.956,4.958l0,0v44.624c0,2.742,2.223,4.961,4.956,4.961h23.14  C87.779,90,90,87.781,90,85.039V40.416z"></path><rect x="60.484" y="43.016" fill="none" stroke="#000000" stroke-linecap="round" stroke-linejoin="round" stroke-miterlimit="10" width="25.975" height="37.779"></rect><rect x="64.72" y="55.029" fill="none" stroke="#000000" stroke-linecap="round" stroke-linejoin="round" stroke-miterlimit="10" width="17.502" height="5"></rect><rect x="64.72" y="63.779" fill="none" stroke="#000000" stroke-linecap="round" stroke-linejoin="round" stroke-miterlimit="10" width="17.502" height="5.002"></rect><rect x="45.692" y="68.234" fill="none" stroke="#000000" stroke-linecap="round" stroke-linejoin="round" stroke-miterlimit="10" width="11.251" height="3.09"></rect><rect x="45.692" y="62.059" fill="none" stroke="#000000" stroke-linecap="round" stroke-linejoin="round" stroke-miterlimit="10" width="11.251" height="3.088"></rect><rect x="23.237" y="55.883" fill="none" stroke="#000000" stroke-linecap="round" stroke-linejoin="round" stroke-miterlimit="10" width="33.707" height="3.09"></rect><rect x="39.704" y="43.53" fill="none" stroke="#000000" stroke-linecap="round" stroke-linejoin="round" stroke-miterlimit="10" width="17.239" height="3.09"></rect><path fill="none" stroke="#000000" stroke-linecap="round" stroke-linejoin="round" stroke-miterlimit="10" d="M36.403,76.027  c0,3.537-2.864,6.404-6.405,6.404c-3.537,0-6.402-2.867-6.402-6.404c0-3.535,2.865-6.398,6.402-6.398  C33.539,69.629,36.403,72.492,36.403,76.027z"></path><path fill="none" stroke="#000000" stroke-linecap="round" stroke-linejoin="round" stroke-miterlimit="10" d="M34.013,85.707  c1.637-0.678,3.485-0.004,4.348,1.492c1.07-0.799,2.014-1.746,2.814-2.813c-1.498-0.867-2.172-2.713-1.495-4.35  c0.683-1.645,2.465-2.471,4.135-2.02c0.089-0.65,0.156-1.313,0.156-1.99c0-0.68-0.067-1.338-0.156-1.988  c-1.67,0.451-3.456-0.387-4.135-2.023c-0.677-1.639-0.003-3.486,1.495-4.344c-0.801-1.07-1.748-2.018-2.814-2.818  c-0.862,1.502-2.711,2.174-4.351,1.496c-1.642-0.68-2.474-2.463-2.019-4.135c-0.655-0.092-1.313-0.154-1.992-0.154  c-0.677,0-1.335,0.063-1.987,0.154c0.448,1.672-0.383,3.455-2.021,4.135c-1.64,0.678-3.488,0.006-4.346-1.492  c-1.072,0.799-2.016,1.744-2.815,2.814c1.496,0.857,2.17,2.711,1.493,4.344c-0.683,1.641-2.465,2.475-4.136,2.023  c-0.093,0.65-0.158,1.309-0.158,1.988c0,0.678,0.065,1.34,0.158,1.99c1.671-0.451,3.453,0.383,4.136,2.02  c0.677,1.643,0.003,3.49-1.493,4.35c0.799,1.068,1.743,2.014,2.815,2.813c0.857-1.496,2.706-2.17,4.346-1.492  c1.638,0.682,2.469,2.463,2.021,4.135C28.664,89.932,29.322,90,29.999,90c0.679,0,1.341-0.068,1.992-0.158  C31.539,88.17,32.373,86.389,34.013,85.707z"></path><path fill="none" stroke="#000000" stroke-linecap="round" stroke-linejoin="round" stroke-miterlimit="10" d="M32.641,18.236  l0.007-0.002l-1.6-3.194c-0.254-0.507-0.924-0.922-1.49-0.922H19.264c-0.564,0-1.236,0.415-1.488,0.922l-1.599,3.194l0.004,0.002H10  v61.762h10.304c-0.693-1.607-2.459-2.428-4.116-1.98c-0.093-0.65-0.158-1.313-0.158-1.99c0-0.68,0.065-1.338,0.158-1.988  c1.671,0.451,3.453-0.383,4.136-2.023c0.677-1.633,0.003-3.486-1.493-4.344c0.799-1.07,1.743-2.016,2.815-2.814  c0.857,1.498,2.706,2.17,4.346,1.492c1.638-0.68,2.469-2.463,2.021-4.135c0.652-0.092,1.311-0.154,1.987-0.154  c0.679,0,1.337,0.063,1.992,0.154c-0.455,1.672,0.377,3.455,2.019,4.135c1.64,0.678,3.488,0.006,4.351-1.496  c1.066,0.801,2.014,1.748,2.814,2.818c-1.498,0.857-2.172,2.705-1.495,4.344c0.679,1.637,2.465,2.475,4.135,2.023  c0.089,0.65,0.156,1.309,0.156,1.988c0,0.678-0.067,1.34-0.156,1.99c-1.657-0.447-3.421,0.365-4.115,1.98h17.244V40.416l0,0  c0-2.739,2.219-4.958,4.956-4.958h18.104V18.236H32.641z"></path></svg>