<svg xmlns="http://www.w3.org/2000/svg" xmlns:xlink="http://www.w3.org/1999/xlink" xmlns:sketch="http://www.bohemiancoding.com/sketch/ns" viewBox="0 0 76 95" version="1.1" x="0px" y="0px"><title>calculator</title><desc>Created with Sketch.</desc><g stroke="none" stroke-width="1" fill="none" fill-rule="evenodd" sketch:type="MSPage"><path d="M60.8,35.0776629 L60.8,15.2 L15.2,15.2 L15.2,20.03441 C16.2631846,20.7294564 17.8203102,21.9394014 20.0993652,24.0060547 C26.9182129,30.1894043 26.0259399,34.3767337 30.3851562,34.3767337 C34.0297599,34.3767337 37.2770206,20.5757439 45.908566,20.5757439 C54.3454387,20.5757438 58.3969466,34.0171458 60.8,35.0776629 Z M60.8,40.427081 L60.8,44.65 L15.2,44.65 L15.2,27.2872657 C19.0062055,31.3666049 23.2125339,40.4575687 30.3851562,40.4575687 C39.0047354,40.4575687 40.2938224,26.1996825 46.3936768,26.1996827 C52.4935312,26.1996829 52.8623047,40.4575689 60.3950439,40.4575689 C60.5369605,40.4575689 60.6719094,40.4470978 60.8,40.427081 Z M0,5.00714805 C0,2.24177654 2.23337654,0 5.00125865,0 L70.9987413,0 C73.7608602,0 76,2.23147885 76,5.00714805 L76,89.9928519 C76,92.7582235 73.7666235,95 70.9987413,95 L5.00125865,95 C2.23913977,95 0,92.7685212 0,89.9928519 L0,5.00714805 Z M2.85,5.79019859 C2.85,4.69104226 3.75220429,3.8 4.85071988,3.8 L70.1992801,3.8 C71.3042472,3.8 72.2,4.70320924 72.2,5.79019859 L72.2,90.1598014 C72.2,91.2589577 71.2977957,92.15 70.1992801,92.15 L4.85071988,92.15 C3.7457528,92.15 2.85,91.2467908 2.85,90.1598014 L2.85,5.79019859 Z M11.4,11.4 L64.6,11.4 L64.6,49.4 L11.4,49.4 L11.4,11.4 Z M11.4,59.9952158 C11.4,58.3410038 12.7488986,57 14.4030309,57 L23.5969691,57 C25.2554973,57 26.6,58.3524967 26.6,59.9952158 L26.6,65.4047842 C26.6,67.0589962 25.2511014,68.4 23.5969691,68.4 L14.4030309,68.4 C12.7445027,68.4 11.4,67.0475033 11.4,65.4047842 L11.4,59.9952158 Z M15.2,60.325 L22.8,60.325 L22.8,65.075 L15.2,65.075 L15.2,60.325 Z M30.4,59.9952158 C30.4,58.3410038 31.7488986,57 33.4030309,57 L42.5969691,57 C44.2554973,57 45.6,58.3524967 45.6,59.9952158 L45.6,65.4047842 C45.6,67.0589962 44.2511014,68.4 42.5969691,68.4 L33.4030309,68.4 C31.7445027,68.4 30.4,67.0475033 30.4,65.4047842 L30.4,59.9952158 Z M34.2,60.325 L41.8,60.325 L41.8,65.075 L34.2,65.075 L34.2,60.325 Z M49.4,59.9952158 C49.4,58.3410038 50.7488986,57 52.4030309,57 L61.5969691,57 C63.2554973,57 64.6,58.3524967 64.6,59.9952158 L64.6,65.4047842 C64.6,67.0589962 63.2511014,68.4 61.5969691,68.4 L52.4030309,68.4 C50.7445027,68.4 49.4,67.0475033 49.4,65.4047842 L49.4,59.9952158 Z M53.2,60.325 L60.8,60.325 L60.8,65.075 L53.2,65.075 L53.2,60.325 Z M49.4,75.1952158 C49.4,73.5410038 50.7488986,72.2 52.4030309,72.2 L61.5969691,72.2 C63.2554973,72.2 64.6,73.5524967 64.6,75.1952158 L64.6,80.6047842 C64.6,82.2589962 63.2511014,83.6 61.5969691,83.6 L52.4030309,83.6 C50.7445027,83.6 49.4,82.2475033 49.4,80.6047842 L49.4,75.1952158 Z M53.2,75.525 L60.8,75.525 L60.8,80.275 L53.2,80.275 L53.2,75.525 Z M30.4,75.1952158 C30.4,73.5410038 31.7488986,72.2 33.4030309,72.2 L42.5969691,72.2 C44.2554973,72.2 45.6,73.5524967 45.6,75.1952158 L45.6,80.6047842 C45.6,82.2589962 44.2511014,83.6 42.5969691,83.6 L33.4030309,83.6 C31.7445027,83.6 30.4,82.2475033 30.4,80.6047842 L30.4,75.1952158 Z M34.2,75.525 L41.8,75.525 L41.8,80.275 L34.2,80.275 L34.2,75.525 Z M11.4,75.1952158 C11.4,73.5410038 12.7488986,72.2 14.4030309,72.2 L23.5969691,72.2 C25.2554973,72.2 26.6,73.5524967 26.6,75.1952158 L26.6,80.6047842 C26.6,82.2589962 25.2511014,83.6 23.5969691,83.6 L14.4030309,83.6 C12.7445027,83.6 11.4,82.2475033 11.4,80.6047842 L11.4,75.1952158 Z M15.2,75.525 L22.8,75.525 L22.8,80.275 L15.2,80.275 L15.2,75.525 Z" fill="#000000" sketch:type="MSShapeGroup"></path></g></svg>