<svg xmlns="http://www.w3.org/2000/svg" xmlns:xlink="http://www.w3.org/1999/xlink" version="1.1" x="0px" y="0px" viewBox="0 0 100 100" enable-background="new 0 0 100 100" xml:space="preserve"><path fill="#000000" d="M82.5,6.6h-44c-5.3,0-9.6,4.3-9.6,9.6v44c0,5.3,4.3,9.6,9.6,9.6h44c5.3,0,9.6-4.3,9.6-9.6v-44  C92.1,10.9,87.8,6.6,82.5,6.6z M89.8,60.3c0,4.1-3.3,7.4-7.4,7.4h-44c-4.1,0-7.4-3.3-7.4-7.4v-44c0-4.1,3.3-7.4,7.4-7.4h44  c4.1,0,7.4,3.3,7.4,7.4V60.3z M59.6,44.7l-9.2-20.8h-0.7l-7.7,18c-1.1,2.7-2,4.4-2.4,5c-0.5,0.6-1.2,1-2.1,1.1v0.7h7.3v-0.7  c-0.9-0.1-1.4-0.2-1.8-0.3c-0.5-0.2-0.8-0.7-0.8-1.3c0-0.3,0.1-0.7,0.3-1.3c0.2-0.5,0.8-2,1.7-4.4H54l1.5,3.5c0.2,0.5,0.4,1,0.5,1.4  c0.1,0.5,0.2,0.8,0.2,0.9c0,0.5-0.2,0.9-0.5,1c-0.3,0.1-1,0.3-2.1,0.3v0.7h9.3v-0.7c-0.9-0.1-1.5-0.3-1.8-0.7  C60.7,46.9,60.2,46,59.6,44.7z M44.9,39.1L49.2,29l4.2,10.1H44.9z M80,46.8c-0.5,0-0.8-0.2-1-0.7c-0.1-0.3-0.1-0.7-0.1-1.4v-7.2  c0-1.6-0.2-2.8-0.7-3.6c-0.8-1.5-2.4-2.3-4.7-2.3c-2,0-3.5,0.5-4.5,1.4c-1,0.9-1.6,1.8-1.6,2.6c0,0.4,0.1,0.8,0.4,1.2  c0.3,0.4,0.7,0.5,1.2,0.5c0.3,0,0.6-0.1,0.9-0.2c0.4-0.3,0.7-0.7,0.7-1.4c0-0.1,0-0.3-0.1-0.7c-0.1-0.3-0.1-0.6-0.1-0.7  c0-0.6,0.3-1,0.8-1.3c0.6-0.3,1.1-0.5,1.7-0.5c1.3,0,2.1,0.4,2.5,1.2c0.2,0.5,0.4,1.3,0.4,2.5v1.5c-3.3,1.2-5.5,2.2-6.6,2.9  c-1.7,1.2-2.6,2.6-2.6,4.3c0,1.1,0.4,2,1.1,2.8c0.8,0.7,1.6,1.1,2.7,1.1c1,0,2-0.3,3.1-1c0.6-0.4,1.4-1,2.3-1.8  c0,0.7,0.2,1.4,0.6,1.9c0.4,0.5,1,0.8,1.8,0.8c0.7,0,1.4-0.2,2-0.7c0.4-0.3,0.9-0.7,1.2-1.1V46c-0.4,0.3-0.8,0.5-0.9,0.6  C80.5,46.7,80.3,46.8,80,46.8z M75.9,44.3c0,0.7-0.4,1.2-1.1,1.7c-0.7,0.4-1.5,0.7-2.3,0.7c-0.6,0-1.1-0.2-1.6-0.5  c-0.7-0.5-1.1-1.3-1.1-2.4c0-1.4,0.9-2.6,2.6-3.6c0.9-0.6,2-1.1,3.4-1.5V44.3z M75.1,72.1h-2.3l0.2,0.9c0.5,2,0.2,4-0.9,5.7  c-1.1,1.7-2.7,3-4.7,3.4l-38.9,9.5c-4.1,1-8.2-1.5-9.2-5.6L9.9,47.2c-0.5-2-0.2-4,0.9-5.8c1.1-1.7,2.7-3,4.7-3.4l11.1-2.7V33  L15,35.9c-2.6,0.6-4.7,2.2-6.1,4.5c-1.4,2.2-1.8,4.9-1.2,7.5l9.5,38.9c0.6,2.6,2.2,4.7,4.5,6.1c1.6,1,3.3,1.4,5.1,1.4  c0.8,0,1.6-0.1,2.3-0.3l38.9-9.5c2.6-0.6,4.7-2.2,6.1-4.5c1.4-2.2,1.8-4.9,1.2-7.5L75.1,72.1z"></path></svg>