<svg xmlns="http://www.w3.org/2000/svg" xmlns:xlink="http://www.w3.org/1999/xlink" version="1.1" x="0px" y="0px" viewBox="0 0 100 100" style="enable-background:new 0 0 100 100;" xml:space="preserve"><path d="M37.2,22.3H10.9C7.7,22.3,5,25,5,28.2v43.5c0,3.3,2.7,5.9,5.9,5.9h26.2c3.3,0,5.9-2.7,5.9-5.9V28.2  C43.1,25,40.4,22.3,37.2,22.3z M39.6,71.8c0,1.3-1.1,2.4-2.4,2.4H10.9c-1.3,0-2.4-1.1-2.4-2.4V28.2c0-1.3,1.1-2.4,2.4-2.4h26.2  c1.3,0,2.4,1.1,2.4,2.4V71.8z"></path><path d="M89.1,22.3H54.2c-3.3,0-5.9,2.7-5.9,5.9v17.6c0,3.3,2.7,5.9,5.9,5.9h34.9c3.3,0,5.9-2.7,5.9-5.9V28.2  C95,25,92.3,22.3,89.1,22.3z M91.5,45.8c0,1.3-1.1,2.4-2.4,2.4H54.2c-1.3,0-2.4-1.1-2.4-2.4V28.2c0-1.3,1.1-2.4,2.4-2.4h34.9  c1.3,0,2.4,1.1,2.4,2.4V45.8z"></path><path d="M89.1,56.9h-8.9c-3.3,0-5.9,2.7-5.9,5.9v2.9c0,3.3,2.7,5.9,5.9,5.9h8.9c3.3,0,5.9-2.7,5.9-5.9v-2.9  C95,59.6,92.3,56.9,89.1,56.9z M91.5,65.8c0,1.3-1.1,2.4-2.4,2.4h-8.9c-1.3,0-2.4-1.1-2.4-2.4v-2.9c0-1.3,1.1-2.4,2.4-2.4h8.9  c1.3,0,2.4,1.1,2.4,2.4V65.8z"></path><path d="M27.4,50.8H13.7c-0.8,0-1.5-0.7-1.5-1.5s0.7-1.5,1.5-1.5h13.7c0.8,0,1.5,0.7,1.5,1.5S28.2,50.8,27.4,50.8z"></path><path d="M34.4,57H13.7c-0.8,0-1.5-0.7-1.5-1.5s0.7-1.5,1.5-1.5h20.7c0.8,0,1.5,0.7,1.5,1.5S35.2,57,34.4,57z"></path><path d="M82.1,35.4h-6.8c-0.8,0-1.5-0.7-1.5-1.5s0.7-1.5,1.5-1.5h6.8c0.8,0,1.5,0.7,1.5,1.5S82.9,35.4,82.1,35.4z"></path><path d="M85.5,41.6H75.3c-0.8,0-1.5-0.7-1.5-1.5s0.7-1.5,1.5-1.5h10.3c0.8,0,1.5,0.7,1.5,1.5S86.4,41.6,85.5,41.6z"></path><path d="M90.2,77.6H79c-0.8,0-1.5-0.7-1.5-1.5s0.7-1.5,1.5-1.5h11.3c0.8,0,1.5,0.7,1.5,1.5S91.1,77.6,90.2,77.6z"></path><path d="M29.4,63.3H13.7c-0.8,0-1.5-0.7-1.5-1.5s0.7-1.5,1.5-1.5h15.7c0.8,0,1.5,0.7,1.5,1.5S30.2,63.3,29.4,63.3z"></path><path d="M21.4,69.5h-7.7c-0.8,0-1.5-0.7-1.5-1.5s0.7-1.5,1.5-1.5h7.7c0.8,0,1.5,0.7,1.5,1.5S22.2,69.5,21.4,69.5z"></path><path d="M19.8,44.6c-4.2,0-7.6-3.4-7.6-7.6s3.4-7.6,7.6-7.6s7.6,3.4,7.6,7.6S23.9,44.6,19.8,44.6z M19.8,32.5c-2.5,0-4.6,2-4.6,4.6  s2,4.6,4.6,4.6s4.6-2,4.6-4.6S22.3,32.5,19.8,32.5z"></path><path d="M63,44.6c-4.2,0-7.6-3.4-7.6-7.6s3.4-7.6,7.6-7.6c4.2,0,7.6,3.4,7.6,7.6S67.2,44.6,63,44.6z M63,32.5c-2.5,0-4.6,2-4.6,4.6  s2,4.6,4.6,4.6c2.5,0,4.6-2,4.6-4.6S65.5,32.5,63,32.5z"></path><g><path d="M63.1,56.9h-8.9c-3.3,0-5.9,2.7-5.9,5.9v2.9c0,3.3,2.7,5.9,5.9,5.9h8.9c3.3,0,5.9-2.7,5.9-5.9v-2.9   C69,59.6,66.4,56.9,63.1,56.9z M65.6,65.8c0,1.3-1.1,2.4-2.4,2.4h-8.9c-1.3,0-2.4-1.1-2.4-2.4v-2.9c0-1.3,1.1-2.4,2.4-2.4h8.9   c1.3,0,2.4,1.1,2.4,2.4V65.8z"></path><path d="M64.3,77.6H53c-0.8,0-1.5-0.7-1.5-1.5s0.7-1.5,1.5-1.5h11.3c0.8,0,1.5,0.7,1.5,1.5S65.1,77.6,64.3,77.6z"></path><circle cx="58.7" cy="64.3" r="1.9"></circle></g><circle cx="84.6" cy="64.3" r="1.9"></circle></svg>