<svg xmlns="http://www.w3.org/2000/svg" xmlns:xlink="http://www.w3.org/1999/xlink" version="1.1" x="0px" y="0px" viewBox="0 0 64 64" enable-background="new 0 0 64 64" xml:space="preserve"><g><path fill="#000000" d="M48.694,15.694c0.31,0,0.62,0.009,0.93,0.028v-4.85c0-3.957-3.224-7.18-7.19-7.18H8.901   c-3.957,0-7.18,3.224-7.18,7.18v42.246c0,3.966,3.224,7.19,7.18,7.19h33.533c3.966,0,7.19-3.224,7.19-7.19v-5.592   c-0.31,0.019-0.62,0.028-0.93,0.028c-0.432,0-0.874-0.019-1.297-0.056v5.62c0,2.735-2.227,4.962-4.962,4.962H8.901   c-2.725,0-4.944-2.227-4.944-4.962V10.872c0-2.735,2.218-4.953,4.944-4.953h33.533c2.735,0,4.962,2.218,4.962,4.953v4.878   C47.819,15.713,48.261,15.694,48.694,15.694z"></path><path fill="#000000" d="M32.782,32.301H12.425v-0.893h20.348c-0.009,0.075-0.009,0.141-0.009,0.216   C32.763,31.85,32.773,32.075,32.782,32.301z"></path><path fill="#000000" d="M34.887,39.547H12.425v-0.893h21.973C34.549,38.955,34.709,39.256,34.887,39.547z"></path><rect x="12.424" y="16.476" fill="#000000" width="26.499" height="0.891"></rect><path fill="#000000" d="M34.868,23.729c-0.179,0.291-0.329,0.583-0.479,0.883H12.425v-0.883H34.868z"></path><rect x="12.424" y="45.955" fill="#000000" width="26.499" height="0.891"></rect><path fill="#000000" d="M48.696,45.21c-7.49,0-13.584-6.094-13.584-13.584c0-7.491,6.094-13.585,13.584-13.585   S62.28,24.135,62.28,31.626C62.28,39.116,56.186,45.21,48.696,45.21z M48.696,20.27c-6.261,0-11.355,5.094-11.355,11.356   c0,6.261,5.094,11.355,11.355,11.355s11.355-5.094,11.355-11.355C60.051,25.364,54.957,20.27,48.696,20.27z"></path><path fill="#000000" d="M55.485,26.838c-0.218-0.348-0.605-0.555-1.033-0.555c-0.337,0-0.651,0.128-0.885,0.361   c-1.065,1.055-2.395,2.332-3.57,3.459l-0.079,0.076c-1.14,1.093-2.432,2.333-3.507,3.394l-0.46,0.454l-2.978-3.015   c-0.291-0.295-0.639-0.423-0.977-0.393c-0.53,0.045-0.887,0.312-1.06,0.794c-0.173,0.478-0.069,0.93,0.302,1.304   c1.449,1.464,2.382,2.403,3.84,3.86c0.139,0.137,0.313,0.246,0.478,0.301c0.146,0.048,0.289,0.073,0.426,0.073   c0.333,0,0.635-0.14,0.923-0.426c1.201-1.195,2.619-2.562,4.213-4.096c1.35-1.299,2.88-2.772,4.144-4.028   c0.039-0.037,0.07-0.069,0.101-0.104C55.711,27.909,55.765,27.282,55.485,26.838z"></path></g></svg>