<svg xmlns="http://www.w3.org/2000/svg" xmlns:xlink="http://www.w3.org/1999/xlink" version="1.2" baseProfile="tiny" x="0px" y="0px" viewBox="0 0 100 100" xml:space="preserve"><path d="M50,5C25.187,5,5,25.187,5,50s20.187,45,45,45s45-20.187,45-45S74.813,5,50,5z M35.96,12.55   c-2.492,2.997-4.649,6.792-6.379,11.188c-2.876-0.362-5.718-0.797-8.515-1.313C25.19,18.099,30.265,14.692,35.96,12.55z    M17.445,26.803c3.433,0.701,6.925,1.295,10.478,1.766c-1.667,5.657-2.685,12.067-2.884,18.932H10.086   C10.563,39.814,13.22,32.714,17.445,26.803z M17.445,73.197c-4.225-5.912-6.882-13.012-7.359-20.697h14.952   c0.2,6.865,1.217,13.275,2.884,18.932C24.37,71.902,20.878,72.497,17.445,73.197z M21.066,77.575   c2.797-0.517,5.638-0.952,8.515-1.313c1.73,4.396,3.887,8.191,6.379,11.188C30.265,85.308,25.19,81.901,21.066,77.575z M47.5,89.66   c-5.008-1.315-9.502-6.5-12.682-13.961c4.165-0.382,8.397-0.605,12.682-0.668V89.66z M47.5,70.031   c-4.893,0.069-9.724,0.334-14.466,0.808c-1.702-5.436-2.772-11.697-2.988-18.34H47.5V70.031z M47.5,47.5H30.045   c0.217-6.643,1.286-12.904,2.988-18.34c4.743,0.474,9.574,0.739,14.466,0.808V47.5z M47.5,24.969   c-4.285-0.063-8.517-0.286-12.682-0.668c3.18-7.461,7.674-12.647,12.682-13.961V24.969z M78.934,22.425   c-2.797,0.517-5.638,0.952-8.515,1.313c-1.73-4.396-3.887-8.191-6.379-11.188C69.735,14.692,74.81,18.099,78.934,22.425z    M52.5,10.34c5.008,1.315,9.502,6.5,12.682,13.961c-4.165,0.382-8.397,0.605-12.682,0.668V10.34z M52.5,29.969   c4.893-0.069,9.724-0.334,14.466-0.808c1.702,5.436,2.772,11.697,2.988,18.34H52.5V29.969z M52.5,52.5h17.455   c-0.217,6.643-1.286,12.904-2.988,18.34c-4.743-0.474-9.574-0.739-14.466-0.808V52.5z M52.5,89.66V75.031   c4.285,0.063,8.517,0.286,12.682,0.668C62.002,83.161,57.508,88.346,52.5,89.66z M64.04,87.45   c2.492-2.997,4.649-6.792,6.379-11.188c2.876,0.362,5.718,0.797,8.515,1.313C74.81,81.901,69.735,85.308,64.04,87.45z    M82.555,73.197c-3.433-0.701-6.925-1.295-10.478-1.766c1.667-5.657,2.685-12.067,2.884-18.932h14.952   C89.437,60.186,86.78,67.286,82.555,73.197z M89.914,47.5H74.962c-0.2-6.865-1.217-13.275-2.884-18.932   c3.552-0.47,7.045-1.065,10.478-1.766C86.78,32.714,89.437,39.814,89.914,47.5z"></path></svg>