<?xml version="1.0" encoding="UTF-8" standalone="no"?>
<svg
   xmlns:dc="http://purl.org/dc/elements/1.1/"
   xmlns:cc="http://creativecommons.org/ns#"
   xmlns:rdf="http://www.w3.org/1999/02/22-rdf-syntax-ns#"
   xmlns:svg="http://www.w3.org/2000/svg"
   xmlns="http://www.w3.org/2000/svg"
   xmlns:sodipodi="http://sodipodi.sourceforge.net/DTD/sodipodi-0.dtd"
   xmlns:inkscape="http://www.inkscape.org/namespaces/inkscape"
   version="1.1"
   x="0px"
   y="0px"
   viewBox="0 0 24 24"
   style="enable-background:new 0 0 24 24;"
   xml:space="preserve"
   id="svg2"
   inkscape:version="0.91 r13725"
   sodipodi:docname="noun_209279_rotate.svg"><metadata
     id="metadata16"><rdf:RDF><cc:Work
         rdf:about=""><dc:format>image/svg+xml</dc:format><dc:type
           rdf:resource="http://purl.org/dc/dcmitype/StillImage" /></cc:Work></rdf:RDF></metadata><defs
     id="defs14" /><sodipodi:namedview
     pagecolor="#ffffff"
     bordercolor="#666666"
     borderopacity="1"
     objecttolerance="10"
     gridtolerance="10"
     guidetolerance="10"
     inkscape:pageopacity="0"
     inkscape:pageshadow="2"
     inkscape:window-width="679"
     inkscape:window-height="729"
     id="namedview12"
     showgrid="false"
     inkscape:zoom="9.8333333"
     inkscape:cx="12"
     inkscape:cy="12"
     inkscape:window-x="683"
     inkscape:window-y="18"
     inkscape:window-maximized="0"
     inkscape:current-layer="svg2" /><g
     id="g4"
     transform="matrix(1,0,0,-1,0,24)"><path
       d="M 4.5,0 C 2.57,0 1,1.57 1,3.5 1,5.258 2.308,6.704 4,6.949 l 0,7.344 -1.146,-1.146 c -0.195,-0.195 -0.512,-0.195 -0.707,0 -0.195,0.195 -0.195,0.512 0,0.707 l 1.999,1.999 c 0.046,0.046 0.102,0.083 0.163,0.109 C 4.37,15.987 4.435,16 4.5,16 4.565,16 4.63,15.987 4.691,15.962 4.753,15.937 4.808,15.9 4.854,15.853 l 1.999,-1.999 c 0.195,-0.195 0.195,-0.512 0,-0.707 -0.195,-0.195 -0.512,-0.195 -0.707,0 L 5,14.293 5,6.949 C 6.692,6.704 8,5.258 8,3.5 8,1.57 6.43,0 4.5,0 Z"
       id="path6"
       inkscape:connector-curvature="0" /><path
       d="M 4.5,17 C 2.57,17 1,18.57 1,20.5 1,22.43 2.57,24 4.5,24 6.43,24 8,22.43 8,20.5 8,18.57 6.43,17 4.5,17 Z"
       id="path8"
       inkscape:connector-curvature="0" /><path
       d="M 23,8.5 C 23,6.57 21.43,5 19.5,5 17.57,5 16,6.57 16,8.5 c 0,1.758 1.308,3.204 3,3.449 l 0,4.551 c 0,1.93 -1.57,3.5 -3.5,3.5 l -4.793,0 1.146,-1.146 c 0.195,-0.195 0.195,-0.512 0,-0.707 -0.195,-0.195 -0.512,-0.195 -0.707,0 l -2,2 c -0.065,0.065 -0.101,0.146 -0.122,0.229 -0.005,0.02 -0.009,0.038 -0.011,0.058 -0.012,0.087 -0.009,0.174 0.025,0.257 0,0 0,0.001 0,0.001 10e-4,0.002 0.003,0.003 0.004,0.005 0.024,0.057 0.058,0.111 0.105,0.157 l 2,2 C 11.244,22.951 11.372,23 11.5,23 c 0.128,0 0.256,-0.049 0.354,-0.146 0.195,-0.195 0.195,-0.512 0,-0.707 L 10.707,21 15.5,21 c 2.481,0 4.5,-2.019 4.5,-4.5 l 0,-4.551 c 1.692,-0.245 3,-1.691 3,-3.449 z"
       id="path10"
       inkscape:connector-curvature="0" /></g></svg>