<?xml version="1.0" encoding="UTF-8" standalone="no"?>
<svg
   xmlns:dc="http://purl.org/dc/elements/1.1/"
   xmlns:cc="http://creativecommons.org/ns#"
   xmlns:rdf="http://www.w3.org/1999/02/22-rdf-syntax-ns#"
   xmlns:svg="http://www.w3.org/2000/svg"
   xmlns="http://www.w3.org/2000/svg"
   xmlns:sodipodi="http://sodipodi.sourceforge.net/DTD/sodipodi-0.dtd"
   xmlns:inkscape="http://www.inkscape.org/namespaces/inkscape"
   version="1.1"
   x="0px"
   y="0px"
   viewBox="0 0 100 100"
   enable-background="new 0 0 100 100"
   xml:space="preserve"
   id="svg2"
   inkscape:version="0.91 r13725"
   sodipodi:docname="noun_47250_num.svg"><metadata
     id="metadata10"><rdf:RDF><cc:Work
         rdf:about=""><dc:format>image/svg+xml</dc:format><dc:type
           rdf:resource="http://purl.org/dc/dcmitype/StillImage" /></cc:Work></rdf:RDF></metadata><defs
     id="defs8" /><sodipodi:namedview
     pagecolor="#ffffff"
     bordercolor="#666666"
     borderopacity="1"
     objecttolerance="10"
     gridtolerance="10"
     guidetolerance="10"
     inkscape:pageopacity="0"
     inkscape:pageshadow="2"
     inkscape:window-width="1362"
     inkscape:window-height="729"
     id="namedview6"
     showgrid="false"
     inkscape:zoom="2.36"
     inkscape:cx="50"
     inkscape:cy="50"
     inkscape:window-x="0"
     inkscape:window-y="18"
     inkscape:window-maximized="0"
     inkscape:current-layer="svg2" /><path
     fill="#000000"
     d="M82.5,6.6h-44c-5.3,0-9.6,4.3-9.6,9.6v44c0,5.3,4.3,9.6,9.6,9.6h44c5.3,0,9.6-4.3,9.6-9.6v-44  C92.1,10.9,87.8,6.6,82.5,6.6z M89.8,60.3c0,4.1-3.3,7.4-7.4,7.4h-44c-4.1,0-7.4-3.3-7.4-7.4v-44c0-4.1,3.3-7.4,7.4-7.4h44  c4.1,0,7.4,3.3,7.4,7.4V60.3z M59.6,44.7l-9.2-20.8h-0.7l-7.7,18c-1.1,2.7-2,4.4-2.4,5c-0.5,0.6-1.2,1-2.1,1.1v0.7h7.3v-0.7  c-0.9-0.1-1.4-0.2-1.8-0.3c-0.5-0.2-0.8-0.7-0.8-1.3c0-0.3,0.1-0.7,0.3-1.3c0.2-0.5,0.8-2,1.7-4.4H54l1.5,3.5c0.2,0.5,0.4,1,0.5,1.4  c0.1,0.5,0.2,0.8,0.2,0.9c0,0.5-0.2,0.9-0.5,1c-0.3,0.1-1,0.3-2.1,0.3v0.7h9.3v-0.7c-0.9-0.1-1.5-0.3-1.8-0.7  C60.7,46.9,60.2,46,59.6,44.7z M44.9,39.1L49.2,29l4.2,10.1H44.9z M80,46.8c-0.5,0-0.8-0.2-1-0.7c-0.1-0.3-0.1-0.7-0.1-1.4v-7.2  c0-1.6-0.2-2.8-0.7-3.6c-0.8-1.5-2.4-2.3-4.7-2.3c-2,0-3.5,0.5-4.5,1.4c-1,0.9-1.6,1.8-1.6,2.6c0,0.4,0.1,0.8,0.4,1.2  c0.3,0.4,0.7,0.5,1.2,0.5c0.3,0,0.6-0.1,0.9-0.2c0.4-0.3,0.7-0.7,0.7-1.4c0-0.1,0-0.3-0.1-0.7c-0.1-0.3-0.1-0.6-0.1-0.7  c0-0.6,0.3-1,0.8-1.3c0.6-0.3,1.1-0.5,1.7-0.5c1.3,0,2.1,0.4,2.5,1.2c0.2,0.5,0.4,1.3,0.4,2.5v1.5c-3.3,1.2-5.5,2.2-6.6,2.9  c-1.7,1.2-2.6,2.6-2.6,4.3c0,1.1,0.4,2,1.1,2.8c0.8,0.7,1.6,1.1,2.7,1.1c1,0,2-0.3,3.1-1c0.6-0.4,1.4-1,2.3-1.8  c0,0.7,0.2,1.4,0.6,1.9c0.4,0.5,1,0.8,1.8,0.8c0.7,0,1.4-0.2,2-0.7c0.4-0.3,0.9-0.7,1.2-1.1V46c-0.4,0.3-0.8,0.5-0.9,0.6  C80.5,46.7,80.3,46.8,80,46.8z M75.9,44.3c0,0.7-0.4,1.2-1.1,1.7c-0.7,0.4-1.5,0.7-2.3,0.7c-0.6,0-1.1-0.2-1.6-0.5  c-0.7-0.5-1.1-1.3-1.1-2.4c0-1.4,0.9-2.6,2.6-3.6c0.9-0.6,2-1.1,3.4-1.5V44.3z M75.1,72.1h-2.3l0.2,0.9c0.5,2,0.2,4-0.9,5.7  c-1.1,1.7-2.7,3-4.7,3.4l-38.9,9.5c-4.1,1-8.2-1.5-9.2-5.6L9.9,47.2c-0.5-2-0.2-4,0.9-5.8c1.1-1.7,2.7-3,4.7-3.4l11.1-2.7V33  L15,35.9c-2.6,0.6-4.7,2.2-6.1,4.5c-1.4,2.2-1.8,4.9-1.2,7.5l9.5,38.9c0.6,2.6,2.2,4.7,4.5,6.1c1.6,1,3.3,1.4,5.1,1.4  c0.8,0,1.6-0.1,2.3-0.3l38.9-9.5c2.6-0.6,4.7-2.2,6.1-4.5c1.4-2.2,1.8-4.9,1.2-7.5L75.1,72.1z"
     id="path4" /><rect
     style="fill:#ffffff"
     id="rect3342"
     width="48.305084"
     height="41.101696"
     x="37.711864"
     y="17.79661" /><text
     xml:space="preserve"
     style="font-style:normal;font-weight:normal;font-size:40px;line-height:125%;font-family:serif;letter-spacing:0px;word-spacing:0px;fill:#000000;fill-opacity:1;stroke:none;stroke-width:1px;stroke-linecap:butt;stroke-linejoin:miter;stroke-opacity:1;-inkscape-font-specification:serif;font-stretch:normal;font-variant:normal;"
     x="42.372883"
     y="58.898304"
     id="text3344"
     sodipodi:linespacing="125%"><tspan
       sodipodi:role="line"
       id="tspan3346"
       x="42.372883"
       y="58.898304" /></text>
<text
     xml:space="preserve"
     style="font-style:normal;font-weight:normal;font-size:35px;line-height:125%;font-family:serif;letter-spacing:0px;word-spacing:0px;fill:#000000;fill-opacity:1;stroke:none;stroke-width:1px;stroke-linecap:butt;stroke-linejoin:miter;stroke-opacity:1;-inkscape-font-specification:serif;font-stretch:normal;font-variant:normal;"
     x="35.59322"
     y="54.237289"
     id="text3348"
     sodipodi:linespacing="125%"><tspan
       sodipodi:role="line"
       id="tspan3350"
       x="35.59322"
       y="54.237289" /></text>
<text
     xml:space="preserve"
     style="font-style:normal;font-weight:normal;font-size:35px;line-height:125%;font-family:sans-serif;letter-spacing:0px;word-spacing:0px;fill:#000000;fill-opacity:1;stroke:none;stroke-width:1px;stroke-linecap:butt;stroke-linejoin:miter;stroke-opacity:1"
     x="35.59322"
     y="53.81356"
     id="text3352"
     sodipodi:linespacing="125%"><tspan
       sodipodi:role="line"
       id="tspan3354"
       x="35.59322"
       y="53.81356" /></text>
<text
     xml:space="preserve"
     style="font-style:normal;font-weight:normal;font-size:35px;line-height:125%;font-family:sans-serif;letter-spacing:0px;word-spacing:0px;fill:#000000;fill-opacity:1;stroke:none;stroke-width:1px;stroke-linecap:butt;stroke-linejoin:miter;stroke-opacity:1"
     x="37.711864"
     y="48.728813"
     id="text3356"
     sodipodi:linespacing="125%"><tspan
       sodipodi:role="line"
       id="tspan3358"
       x="37.711864"
       y="48.728813">12</tspan></text>
</svg>