<svg xmlns="http://www.w3.org/2000/svg" xmlns:xlink="http://www.w3.org/1999/xlink" viewBox="0 0 48 48" version="1.1" x="0px" y="0px"><title>theicons.co/svg/keyboard-05</title><desc>Created with Sketch.</desc><g stroke="none" stroke-width="1" fill="none" fill-rule="evenodd"><g transform="translate(-768.000000, -2400.000000)"><g transform="translate(384.000000, 2400.000000)" fill="#000000"><g transform="translate(384.000000, 0.000000)"><path d="M30.8284271,24 L35.0775766,19.7508505 C35.8501493,18.9782778 35.8521164,17.7099808 35.0710678,16.9289322 C34.2845739,16.1424383 33.0266034,16.1449695 32.2491495,16.9224234 L28,21.1715729 L23.7508505,16.9224234 C22.9733966,16.1449695 21.7154261,16.1424383 20.9289322,16.9289322 C20.1478836,17.7099808 20.1498507,18.9782778 20.9224234,19.7508505 L25.1715729,24 L20.9224234,28.2491495 C20.1498507,29.0217222 20.1478836,30.2900192 20.9289322,31.0710678 C21.7154261,31.8575617 22.9733966,31.8550305 23.7508505,31.0775766 L28,26.8284271 L32.2491495,31.0775766 C33.0266034,31.8550305 34.2845739,31.8575617 35.0710678,31.0710678 C35.8521164,30.2900192 35.8501493,29.0217222 35.0775766,28.2491495 L30.8284271,24 L30.8284271,24 Z M4.52834071,25.5632794 C3.84228823,24.699904 3.84883657,23.2918551 4.52834071,22.4367206 L14.7577921,9.56327939 C15.4438446,8.69990402 16.8998975,8 17.9912443,8 L40.0031611,8 C42.2105543,8 44,9.78902751 44,12.0042577 L44,35.9957423 C44,38.2072328 42.2058797,40 40.0031611,40 L17.9912443,40 C16.8915104,40 15.4372962,39.2918551 14.7577921,38.4367206 L4.52834071,25.5632794 L4.52834071,25.5632794 Z M17.9912443,36 L40.0031611,36 C39.9974172,36 40,12.0042577 40,12.0042577 C40,11.9983761 17.9912443,12 17.9912443,12 L8.37567136,23.9998975 L17.9912443,36 L17.9912443,36 Z"></path></g></g></g></g></svg>